<?xml version="1.0" standalone="no"?>
<!DOCTYPE svg PUBLIC "-//W3C//DTD SVG 20010904//EN"
 "http://www.w3.org/TR/2001/REC-SVG-20010904/DTD/svg10.dtd">
<svg version="1.0" xmlns="http://www.w3.org/2000/svg"
 width="369.000000pt" height="419.000000pt" viewBox="0 0 369.000000 419.000000"
 preserveAspectRatio="xMidYMid meet">

<g transform="translate(0.000000,419.000000) scale(0.100000,-0.100000)"
fill="#000000" stroke="none">
<path d="M1638 4185 c-3 -3 -49 -13 -102 -21 -346 -52 -700 -232 -960 -488
-128 -126 -171 -177 -251 -296 -152 -226 -256 -488 -290 -725 -8 -55 -19 -101
-25 -103 -14 -5 -14 -409 1 -414 6 -2 15 -39 20 -83 5 -44 21 -123 35 -175
118 -450 398 -838 791 -1093 40 -26 88 -55 108 -64 19 -9 35 -22 35 -28 0 -17
-108 -123 -154 -150 -58 -34 -122 -46 -171 -34 -82 21 -95 22 -115 4 -28 -26
-25 -73 8 -126 41 -64 91 -103 195 -153 186 -90 439 -137 755 -141 l202 -2 59
-47 c76 -59 102 -60 180 -5 l58 41 214 3 c306 4 540 47 729 132 141 64 230
155 230 236 0 37 -21 67 -47 67 -8 0 -40 -7 -70 -16 -67 -19 -123 -9 -194 37
-53 34 -159 141 -159 161 1 7 35 33 78 58 241 140 481 380 634 635 116 193
198 419 236 645 23 136 22 480 -1 615 -81 474 -356 914 -742 1190 -231 165
-497 278 -762 322 -97 16 -513 30 -525 18z m380 -25 c428 -38 828 -231 1132
-546 116 -121 172 -192 254 -328 101 -167 176 -360 222 -571 32 -149 44 -427
25 -582 -42 -335 -173 -651 -383 -918 -119 -152 -325 -330 -504 -436 -49 -29
-91 -54 -93 -55 -2 -2 13 -26 33 -53 83 -113 216 -201 303 -201 23 0 63 7 88
15 25 9 50 13 55 10 16 -10 11 -68 -9 -101 -98 -161 -497 -276 -955 -273
l-169 0 -68 -46 c-76 -52 -85 -52 -146 -4 -74 60 -84 62 -253 60 -409 -5 -784
91 -921 236 -44 45 -59 73 -59 106 0 33 19 38 76 21 70 -21 112 -17 179 15 86
40 251 197 219 208 -6 2 -59 33 -118 68 -442 265 -742 687 -852 1195 -31 143
-43 433 -25 586 50 412 240 798 533 1082 238 230 511 385 814 462 219 55 399
70 622 50z"/>
</g>
</svg>
